<?xml version="1.0" encoding="UTF-8"?>
<svg version="1.1" xmlns="http://www.w3.org/2000/svg" width="512" height="512">
<path d="M0 0 C168.96 0 337.92 0 512 0 C512 168.96 512 337.92 512 512 C343.04 512 174.08 512 0 512 C0 343.04 0 174.08 0 0 Z " fill="#0A0D16" transform="translate(0,0)"/>
<path d="M0 0 C0 16.5 0 33 0 50 C-3.96 49.67 -7.92 49.34 -12 49 C-29.49 48.67 -46.98 48.34 -65 48 C-65 119.61 -65 191.22 -65 265 C-82.82 264.67 -100.64 264.34 -119 264 C-119 192.72 -119 121.44 -119 48 C-150.65752461 46.55590422 -150.65752461 46.55590422 -181 52 C-182.485 52.495 -182.485 52.495 -184 53 C-184 36.17 -184 19.34 -184 2 C-181.525 2.495 -181.525 2.495 -179 3 C-176.65052557 3.09445747 -174.29864664 3.13484005 -171.94728088 3.14044189 C-170.89979161 3.14489858 -170.89979161 3.14489858 -169.83114094 3.1494453 C-167.49752246 3.15809815 -165.16395549 3.15963762 -162.83032227 3.16113281 C-161.15461112 3.16576328 -159.47890102 3.17078825 -157.80319214 3.17617798 C-153.25571012 3.189279 -148.70824284 3.19574205 -144.16074491 3.20018864 C-141.31920184 3.20312211 -138.47766279 3.20722737 -135.63612175 3.21169281 C-126.74395694 3.22535957 -117.85180132 3.23503114 -108.95962673 3.2388947 C-98.69721693 3.24337835 -88.43494012 3.26094391 -78.17257077 3.2898953 C-70.23698261 3.3115054 -62.3014319 3.32159857 -54.36581463 3.32293582 C-49.62717665 3.32398401 -44.88866383 3.3298953 -40.15005684 3.34775543 C-35.69391328 3.36422526 -31.23798915 3.36639694 -26.78182602 3.35761642 C-25.14759038 3.35684556 -23.51334299 3.36119532 -21.87913704 3.37107468 C-19.64573104 3.38378354 -17.41310356 3.37792384 -15.17970276 3.36749268 C-13.93071481 3.36895924 -12.68172686 3.3704258 -11.39489079 3.3719368 C-7.22981699 2.91562044 -3.98505238 0 0 0 Z " fill="#8A5BF4" transform="translate(348,137)"/>
</svg>
